<mxfile host="app.diagrams.net" modified="2022-04-25T07:48:09.983Z" agent="5.0 (Windows NT 10.0; Win64; x64) AppleWebKit/537.36 (KHTML, like Gecko) Chrome/94.0.4606.12 Safari/537.36" etag="S1jVGpxwJMlEk2mJhTUq" version="17.4.6" type="github">
  <diagram id="9nof-YrUIcUQoQ41efWT" name="Page-1">
    <mxGraphModel dx="2500" dy="896" grid="0" gridSize="10" guides="1" tooltips="1" connect="1" arrows="1" fold="1" page="1" pageScale="1" pageWidth="827" pageHeight="1169" math="0" shadow="0">
      <root>
        <mxCell id="0" />
        <mxCell id="1" parent="0" />
        <mxCell id="w54mhhMjvQkeGyMwNGyl-1" style="edgeStyle=none;rounded=0;orthogonalLoop=1;jettySize=auto;html=1;fontSize=18;exitX=0.5;exitY=1;exitDx=0;exitDy=0;" edge="1" parent="1" source="w54mhhMjvQkeGyMwNGyl-2">
          <mxGeometry relative="1" as="geometry">
            <mxPoint x="-749.5882352941176" y="396" as="targetPoint" />
            <mxPoint x="-750" y="276" as="sourcePoint" />
          </mxGeometry>
        </mxCell>
        <mxCell id="w54mhhMjvQkeGyMwNGyl-2" value="" style="image;html=1;image=/img/lib/clip_art/people/Suit_Woman_128x128.png;fontSize=18;" vertex="1" parent="1">
          <mxGeometry x="-795" y="136" width="90" height="90" as="geometry" />
        </mxCell>
        <mxCell id="w54mhhMjvQkeGyMwNGyl-3" style="edgeStyle=none;rounded=0;orthogonalLoop=1;jettySize=auto;html=1;fontSize=18;exitX=0.5;exitY=1;exitDx=0;exitDy=0;" edge="1" parent="1" source="w54mhhMjvQkeGyMwNGyl-5">
          <mxGeometry relative="1" as="geometry">
            <mxPoint x="-445" y="276" as="sourcePoint" />
            <mxPoint x="-735" y="396" as="targetPoint" />
          </mxGeometry>
        </mxCell>
        <mxCell id="w54mhhMjvQkeGyMwNGyl-4" style="edgeStyle=none;rounded=0;orthogonalLoop=1;jettySize=auto;html=1;fontSize=18;exitX=0.5;exitY=1;exitDx=0;exitDy=0;" edge="1" parent="1" source="w54mhhMjvQkeGyMwNGyl-5">
          <mxGeometry relative="1" as="geometry">
            <mxPoint x="-445" y="276" as="sourcePoint" />
            <mxPoint x="-445" y="396" as="targetPoint" />
          </mxGeometry>
        </mxCell>
        <mxCell id="w54mhhMjvQkeGyMwNGyl-5" value="" style="image;html=1;image=/img/lib/clip_art/people/Suit_Woman_Blue_128x128.png;fontSize=18;" vertex="1" parent="1">
          <mxGeometry x="-495" y="126" width="100" height="100" as="geometry" />
        </mxCell>
        <mxCell id="w54mhhMjvQkeGyMwNGyl-6" style="edgeStyle=none;rounded=0;orthogonalLoop=1;jettySize=auto;html=1;fontSize=18;exitX=0.5;exitY=1;exitDx=0;exitDy=0;exitPerimeter=0;" edge="1" parent="1" source="w54mhhMjvQkeGyMwNGyl-7">
          <mxGeometry relative="1" as="geometry">
            <mxPoint x="-160" y="266" as="sourcePoint" />
            <mxPoint x="-160" y="396" as="targetPoint" />
          </mxGeometry>
        </mxCell>
        <mxCell id="w54mhhMjvQkeGyMwNGyl-7" value="" style="shape=mxgraph.signs.travel.bank;html=1;pointerEvents=1;fillColor=#f8cecc;strokeColor=#b85450;verticalLabelPosition=bottom;verticalAlign=top;align=center;strokeWidth=0;gradientColor=#ea6b66;fontSize=18;" vertex="1" parent="1">
          <mxGeometry x="-205" y="126" width="89" height="86" as="geometry" />
        </mxCell>
        <mxCell id="w54mhhMjvQkeGyMwNGyl-8" value="" style="sketch=0;outlineConnect=0;fontColor=#ffffff;fillColor=#1ba1e2;strokeColor=#006EAF;dashed=0;verticalLabelPosition=bottom;verticalAlign=top;align=center;html=1;fontSize=18;fontStyle=0;aspect=fixed;pointerEvents=1;shape=mxgraph.aws4.organizations_account;strokeWidth=20;shadow=0;" vertex="1" parent="1">
          <mxGeometry x="-779" y="406" width="74" height="78" as="geometry" />
        </mxCell>
        <mxCell id="w54mhhMjvQkeGyMwNGyl-9" value="" style="sketch=0;outlineConnect=0;fontColor=#ffffff;fillColor=#d80073;strokeColor=#A50040;dashed=0;verticalLabelPosition=bottom;verticalAlign=top;align=center;html=1;fontSize=18;fontStyle=0;aspect=fixed;pointerEvents=1;shape=mxgraph.aws4.organizations_account;strokeWidth=20;shadow=0;" vertex="1" parent="1">
          <mxGeometry x="-190" y="406" width="74" height="78" as="geometry" />
        </mxCell>
        <mxCell id="w54mhhMjvQkeGyMwNGyl-10" value="" style="sketch=0;outlineConnect=0;fontColor=#ffffff;fillColor=#6a00ff;strokeColor=#3700CC;dashed=0;verticalLabelPosition=bottom;verticalAlign=top;align=center;html=1;fontSize=18;fontStyle=0;aspect=fixed;pointerEvents=1;shape=mxgraph.aws4.organizations_account;strokeWidth=20;shadow=0;" vertex="1" parent="1">
          <mxGeometry x="-482" y="406" width="74" height="78" as="geometry" />
        </mxCell>
        <mxCell id="w54mhhMjvQkeGyMwNGyl-11" value="" style="sketch=0;outlineConnect=0;fontColor=#ffffff;fillColor=#60a917;strokeColor=#2D7600;dashed=0;verticalLabelPosition=bottom;verticalAlign=top;align=center;html=1;fontSize=18;fontStyle=0;aspect=fixed;pointerEvents=1;shape=mxgraph.aws4.organizations_account;strokeWidth=20;shadow=0;" vertex="1" parent="1">
          <mxGeometry x="75.5" y="406" width="74" height="78" as="geometry" />
        </mxCell>
        <mxCell id="w54mhhMjvQkeGyMwNGyl-12" style="edgeStyle=none;rounded=0;orthogonalLoop=1;jettySize=auto;html=1;fontSize=18;exitX=0.5;exitY=1;exitDx=0;exitDy=0;" edge="1" parent="1">
          <mxGeometry relative="1" as="geometry">
            <mxPoint x="102.17647058823559" y="396" as="targetPoint" />
            <mxPoint x="101.75" y="220.5" as="sourcePoint" />
          </mxGeometry>
        </mxCell>
        <mxCell id="w54mhhMjvQkeGyMwNGyl-13" value="用户" style="text;html=1;align=center;verticalAlign=middle;resizable=0;points=[];autosize=1;strokeColor=none;fillColor=none;fontSize=18;fontStyle=1" vertex="1" parent="1">
          <mxGeometry x="-775" y="82" width="50" height="30" as="geometry" />
        </mxCell>
        <mxCell id="w54mhhMjvQkeGyMwNGyl-14" value="商户" style="text;html=1;align=center;verticalAlign=middle;resizable=0;points=[];autosize=1;strokeColor=none;fillColor=none;fontSize=18;fontStyle=1" vertex="1" parent="1">
          <mxGeometry x="-470" y="82" width="50" height="30" as="geometry" />
        </mxCell>
        <mxCell id="w54mhhMjvQkeGyMwNGyl-15" value="银行" style="text;html=1;align=center;verticalAlign=middle;resizable=0;points=[];autosize=1;strokeColor=none;fillColor=none;fontSize=18;fontStyle=1" vertex="1" parent="1">
          <mxGeometry x="-185.5" y="82" width="50" height="30" as="geometry" />
        </mxCell>
        <mxCell id="w54mhhMjvQkeGyMwNGyl-16" value="支付机构" style="text;html=1;align=center;verticalAlign=middle;resizable=0;points=[];autosize=1;strokeColor=none;fillColor=none;fontSize=18;fontStyle=1" vertex="1" parent="1">
          <mxGeometry x="59.5" y="82" width="90" height="30" as="geometry" />
        </mxCell>
        <mxCell id="w54mhhMjvQkeGyMwNGyl-17" value="现金账户" style="text;html=1;align=center;verticalAlign=middle;resizable=0;points=[];autosize=1;strokeColor=none;fillColor=none;fontSize=18;fontStyle=1" vertex="1" parent="1">
          <mxGeometry x="-800" y="506" width="90" height="30" as="geometry" />
        </mxCell>
        <mxCell id="w54mhhMjvQkeGyMwNGyl-18" value="交易账户" style="text;html=1;align=center;verticalAlign=middle;resizable=0;points=[];autosize=1;strokeColor=none;fillColor=none;fontSize=18;fontStyle=1" vertex="1" parent="1">
          <mxGeometry x="-490" y="506" width="90" height="30" as="geometry" />
        </mxCell>
        <mxCell id="w54mhhMjvQkeGyMwNGyl-19" value="Bank账户" style="text;html=1;align=center;verticalAlign=middle;resizable=0;points=[];autosize=1;strokeColor=none;fillColor=none;fontSize=18;fontStyle=1" vertex="1" parent="1">
          <mxGeometry x="-210.5" y="506" width="100" height="30" as="geometry" />
        </mxCell>
        <mxCell id="w54mhhMjvQkeGyMwNGyl-20" value="备付金账户" style="text;html=1;align=center;verticalAlign=middle;resizable=0;points=[];autosize=1;strokeColor=none;fillColor=none;fontSize=18;fontStyle=1" vertex="1" parent="1">
          <mxGeometry x="47" y="506" width="110" height="30" as="geometry" />
        </mxCell>
        <mxCell id="w54mhhMjvQkeGyMwNGyl-21" value="" style="shape=image;html=1;verticalAlign=top;verticalLabelPosition=bottom;labelBackgroundColor=#ffffff;imageAspect=0;aspect=fixed;image=https://cdn1.iconfinder.com/data/icons/rounded-social-media/512/wechat-128.png" vertex="1" parent="1">
          <mxGeometry x="59.5" y="126" width="90" height="90" as="geometry" />
        </mxCell>
      </root>
    </mxGraphModel>
  </diagram>
</mxfile>
